<svg xmlns="http://www.w3.org/2000/svg" viewBox="2503 2999 36.5 36.5">
  <g id="building" transform="translate(2503 2999)">
    <g id="Group_50" data-name="Group 50" transform="translate(0)">
      <g id="Group_49" data-name="Group 49">
        <path id="Path_84" data-name="Path 84" d="M137.109,477.867H120.075a.609.609,0,0,0-.608.608v1.217a.608.608,0,1,0,1.217,0v-.608h16.425a.608.608,0,0,0,0-1.217Z" transform="translate(-110.95 -443.8)"/>
        <path id="Path_85" data-name="Path 85" d="M187.733,157.858a.609.609,0,0,0,.608.608h2.433a.609.609,0,0,0,.608-.608v-3.65a.609.609,0,0,0-.608-.608h-2.433a.609.609,0,0,0-.608.608v3.65Zm1.217-3.042h1.217v2.433H188.95Z" transform="translate(-174.35 -142.65)"/>
        <path id="Path_86" data-name="Path 86" d="M7.908,102.4H.608a.609.609,0,0,0-.608.608v12.167a.608.608,0,0,0,1.217,0V103.617H7.908a.608.608,0,0,0,0-1.217Z" transform="translate(0 -95.1)"/>
        <path id="Path_87" data-name="Path 87" d="M409.6,362.658a.609.609,0,0,0,.608.608h2.433a.609.609,0,0,0,.608-.608v-3.65a.609.609,0,0,0-.608-.608h-2.433a.609.609,0,0,0-.608.608Zm1.217-3.042h1.217v2.433h-1.217Z" transform="translate(-380.4 -332.85)"/>
        <path id="Path_88" data-name="Path 88" d="M3.042,307.2C.035,307.2,0,315.029,0,315.108a3.047,3.047,0,0,0,2.433,2.98v3.1a.608.608,0,1,0,1.217,0v-3.1a3.047,3.047,0,0,0,2.433-2.98C6.083,315.029,6.049,307.2,3.042,307.2Zm0,9.733a1.827,1.827,0,0,1-1.825-1.825c0-3.031.814-6.692,1.825-6.692s1.825,3.661,1.825,6.692A1.827,1.827,0,0,1,3.042,316.933Z" transform="translate(0 -285.3)"/>
        <path id="Path_89" data-name="Path 89" d="M54.242,256H51.808a.609.609,0,0,0-.608.608v1.217a.608.608,0,0,0,1.217,0v-.608h1.217v3.042a.608.608,0,0,0,1.217,0v-3.65A.608.608,0,0,0,54.242,256Z" transform="translate(-47.55 -237.75)"/>
        <path id="Path_90" data-name="Path 90" d="M410.208,158.468h2.433a.609.609,0,0,0,.608-.608v-3.65a.609.609,0,0,0-.608-.608h-2.433a.609.609,0,0,0-.608.608v3.65A.609.609,0,0,0,410.208,158.468Zm.608-3.65h1.217v2.433h-1.217Z" transform="translate(-380.4 -142.651)"/>
        <path id="Path_91" data-name="Path 91" d="M54.242,153.6H51.808a.609.609,0,0,0-.608.608v3.65a.609.609,0,0,0,.608.608h2.433a.609.609,0,0,0,.608-.608v-3.65A.608.608,0,0,0,54.242,153.6Zm-.608,3.65H52.417v-2.433h1.217v2.433Z" transform="translate(-47.55 -142.65)"/>
        <path id="Path_92" data-name="Path 92" d="M273.067,157.858a.609.609,0,0,0,.608.608h2.433a.609.609,0,0,0,.608-.608v-3.65a.609.609,0,0,0-.608-.608h-2.433a.609.609,0,0,0-.608.608Zm1.217-3.042H275.5v2.433h-1.217Z" transform="translate(-253.6 -142.65)"/>
        <path id="Path_93" data-name="Path 93" d="M400.442,102.4h-7.3a.608.608,0,0,0,0,1.217h6.692v24.445a1.738,1.738,0,0,0-.921-.085,2.429,2.429,0,0,0-4.241,0,1.787,1.787,0,0,0-.313-.027,1.825,1.825,0,0,0,0,3.65h4.867a1.827,1.827,0,0,0,1.825-1.825V103.008A.609.609,0,0,0,400.442,102.4Zm-1.217,27.983h-4.867a.608.608,0,0,1,0-1.217.6.6,0,0,1,.33.1.608.608,0,0,0,.922-.374,1.212,1.212,0,0,1,2.363,0,.608.608,0,0,0,.922.374.62.62,0,0,1,.938.509A.609.609,0,0,1,399.226,130.383Z" transform="translate(-364.551 -95.1)"/>
        <path id="Path_94" data-name="Path 94" d="M273.675,56.068h2.433a.609.609,0,0,0,.608-.608v-3.65a.609.609,0,0,0-.608-.608h-2.433a.609.609,0,0,0-.608.608v3.65A.609.609,0,0,0,273.675,56.068Zm.608-3.65H275.5v2.433h-1.217Z" transform="translate(-253.6 -47.551)"/>
        <path id="Path_95" data-name="Path 95" d="M273.067,260.258a.609.609,0,0,0,.608.608h2.433a.609.609,0,0,0,.608-.608v-3.65a.609.609,0,0,0-.608-.608h-2.433a.609.609,0,0,0-.608.608Zm1.217-3.042H275.5v2.433h-1.217Z" transform="translate(-253.6 -237.75)"/>
        <path id="Path_96" data-name="Path 96" d="M188.342,56.068h2.433a.609.609,0,0,0,.608-.608v-3.65a.609.609,0,0,0-.608-.608h-2.433a.609.609,0,0,0-.608.608v3.65A.608.608,0,0,0,188.342,56.068Zm.608-3.65h1.217v2.433h-1.217Z" transform="translate(-174.351 -47.551)"/>
        <path id="Path_97" data-name="Path 97" d="M247.642,409.875a.608.608,0,1,0,.864,0A.64.64,0,0,0,247.642,409.875Z" transform="translate(-229.824 -380.499)"/>
        <path id="Path_98" data-name="Path 98" d="M187.733,260.258a.609.609,0,0,0,.608.608h2.433a.609.609,0,0,0,.608-.608v-3.65a.609.609,0,0,0-.608-.608h-2.433a.609.609,0,0,0-.608.608v3.65Zm1.217-3.042h1.217v2.433H188.95Z" transform="translate(-174.35 -237.75)"/>
        <path id="Path_99" data-name="Path 99" d="M170.667,359.008a.609.609,0,0,0,.608.608H173.1v5.475a.608.608,0,0,0,1.217,0v-5.475h4.867v5.475a.608.608,0,0,0,1.217,0v-5.475h1.825a.608.608,0,0,0,0-1.217h-10.95A.609.609,0,0,0,170.667,359.008Z" transform="translate(-158.5 -332.85)"/>
        <path id="Path_100" data-name="Path 100" d="M409.6,260.258a.609.609,0,0,0,.608.608h2.433a.609.609,0,0,0,.608-.608v-3.65a.609.609,0,0,0-.608-.608h-2.433a.609.609,0,0,0-.608.608Zm1.217-3.042h1.217v2.433h-1.217Z" transform="translate(-380.4 -237.75)"/>
        <path id="Path_101" data-name="Path 101" d="M152.959,0H137.142a.609.609,0,0,0-.608.608V32.242a.608.608,0,0,0,1.217,0V1.217h14.6V32.242a.608.608,0,1,0,1.217,0V.608A.608.608,0,0,0,152.959,0Z" transform="translate(-126.801)"/>
      </g>
    </g>
  </g>
</svg>
