<svg xmlns="http://www.w3.org/2000/svg" viewBox="247 1323 78 78">
  <defs>
    <style>
      .cls-1 {
        fill: #fff;
        opacity: 0.7;
      }

      .cls-2 {
        fill: #e6e6e6;
      }

      .cls-3 {
        fill: #ec879f;
      }

      .cls-4 {
        fill: #ccc;
      }

      .cls-5 {
        fill: #e6e2df;
      }
    </style>
  </defs>
  <g id="Group_13" data-name="Group 13" transform="translate(247 1323)">
    <circle id="Ellipse_5" data-name="Ellipse 5" class="cls-1" cx="39" cy="39" r="39" transform="translate(0 0)"/>
    <g id="barbershop" transform="translate(25.133 21.667)">
      <path id="Path_3" data-name="Path 3" class="cls-2" d="M197.489,98.808a4.864,4.864,0,0,0-7.7-.062l-12.786-18.2h0a10.318,10.318,0,0,0,1.6,8.3l10.986,15.641a4.915,4.915,0,0,0,6.833,1.241A4.864,4.864,0,0,0,197.489,98.808Zm-2.26,5.239a2.805,2.805,0,1,1,.683-3.908A2.805,2.805,0,0,1,195.23,104.047Z" transform="translate(-165.323 -74.992)"/>
      <g id="Group_11" data-name="Group 11" transform="translate(10.813 21.26)">
        <path id="Path_4" data-name="Path 4" class="cls-3" d="M322.95,313.075a4.864,4.864,0,0,0-7.7-.062l-1.649-2.348-2.132,2.988,3.58,5.1a4.915,4.915,0,0,0,6.832,1.241A4.863,4.863,0,0,0,322.95,313.075Zm-2.259,5.239a2.805,2.805,0,1,1,.683-3.908A2.806,2.806,0,0,1,320.691,318.314Z" transform="translate(-301.595 -310.522)"/>
        <path id="Path_5" data-name="Path 5" class="cls-3" d="M175.772,308.593l-.627,3.589a4.864,4.864,0,1,0,2.609,5.185l.833-4.766Zm-3.293,10.7a2.805,2.805,0,1,1,3.247-2.28A2.805,2.805,0,0,1,172.479,319.292Z" transform="translate(-168.097 -308.593)"/>
      </g>
      <path id="Path_6" data-name="Path 6" class="cls-4" d="M291.739,56.108l2.36-13.5h0a10.318,10.318,0,0,1,2.083,8.192l-1.629,9.315" transform="translate(-272.408 -39.672)"/>
      <path id="Path_7" data-name="Path 7" class="cls-5" d="M29.2,29.791a1.057,1.057,0,0,0-1.04-.87H25.221a2.144,2.144,0,0,1-2.177-1.467,34.346,34.346,0,0,1,0-15.451,2.144,2.144,0,0,1,2.177-1.467h2.942a1.057,1.057,0,0,0,1.04-.87l0-.022A1.057,1.057,0,0,0,28.167,8.4H22.654a2.389,2.389,0,0,0-2.3,1.769c-1.8,6.62-.235,25.262.283,30.786a1.721,1.721,0,0,0,1.714,1.561h0a1.722,1.722,0,0,0,1.717-1.6l.612-8.416a1.559,1.559,0,0,1,1.555-1.446h1.936a1.056,1.056,0,0,0,1.04-1.243Z" transform="translate(-18.933 -7.82)"/>
      <path id="Path_8" data-name="Path 8" d="M378.571,341.173a.579.579,0,0,0-.352.739,2.227,2.227,0,1,1-.914-1.142.579.579,0,0,0,.615-.98,3.384,3.384,0,1,0,1.39,1.735A.579.579,0,0,0,378.571,341.173Z" transform="translate(-347.826 -315.896)"/>
      <path id="Path_9" data-name="Path 9" d="M182.082,55.317a5.443,5.443,0,0,0-8.1-.636L169.4,48.151l2.075-11.867a9.749,9.749,0,0,1,1.187,6.595l-1.18,6.747a.579.579,0,1,0,1.14.2l1.18-6.747a10.906,10.906,0,0,0-2.2-8.652.579.579,0,0,0-1.023.26l-2.12,12.125-3.234-4.6a.579.579,0,1,0-.947.665l7.291,10.381-1.42,1.99-6.936-9.876a9.747,9.747,0,0,1-1.729-6.473l1.664,2.369a.579.579,0,0,0,.947-.665l-2.48-3.532a.579.579,0,0,0-1.037.2,10.905,10.905,0,0,0,1.689,8.765l5.067,7.215-.462,2.641A5.443,5.443,0,1,0,164.2,66.408a5.508,5.508,0,0,0,.949.083,5.445,5.445,0,0,0,5.349-4.507l.593-3.39,2.163,3.08a5.561,5.561,0,0,0,4.545,2.365,5.341,5.341,0,0,0,3.095-.984,5.443,5.443,0,0,0,1.192-7.739Zm-12.728,6.468a4.284,4.284,0,1,1-2.3-4.568.579.579,0,0,0,.83-.417l.387-2.212,1.874,2.668Zm12.63-2.521a4.25,4.25,0,0,1-4.937,3.553,4.373,4.373,0,0,1-2.85-1.808l-2.965-4.222,0,0-.377-.537,1.42-1.99,1.179,1.679a.579.579,0,0,0,.928.025,4.285,4.285,0,0,1,7.6,3.3Z" transform="translate(-149.455 -31.851)"/>
      <path id="Path_10" data-name="Path 10" d="M193.553,374.7a3.384,3.384,0,1,0-1.166,6.667,3.43,3.43,0,0,0,.59.051,3.384,3.384,0,0,0,.576-6.718Zm1.611,3.717a2.227,2.227,0,1,1-4.387-.767h0a2.227,2.227,0,1,1,4.387.767Z" transform="translate(-177.293 -348.839)"/>
      <path id="Path_11" data-name="Path 11" d="M296.886,292.346a.578.578,0,1,0,.082-.74A.583.583,0,0,0,296.886,292.346Z" transform="translate(-277.111 -271.369)"/>
      <path id="Path_12" data-name="Path 12" d="M21.631,23.229a1.631,1.631,0,0,0,.355-1.338l0-.023a1.634,1.634,0,0,0-1.61-1.346H17.431a1.868,1.868,0,0,1-1.327-.514h3.78a.579.579,0,0,0,0-1.157H15.675q-.1-.5-.193-.992h4.074a.579.579,0,0,0,0-1.157H15.294q-.071-.5-.128-.991h4.259a.579.579,0,0,0,0-1.157h-4.37q-.039-.5-.064-.992h4.434a.579.579,0,0,0,0-1.157H14.952q-.007-.5,0-.992h4.516a.579.579,0,1,0,0-1.157H14.99q.024-.5.064-.991h4.5a.579.579,0,0,0,0-1.157h-4.39q.057-.5.128-.992h4.4a.579.579,0,1,0,0-1.157H15.482q.089-.5.193-.992h4.209a.579.579,0,1,0,0-1.157H16.1a1.869,1.869,0,0,1,1.327-.514h2.942a1.633,1.633,0,0,0,1.61-1.347l0-.021A1.635,1.635,0,0,0,20.376,0H14.863A2.975,2.975,0,0,0,12,2.2c-.658,2.423-1.277,8.06-.491,21.156a.579.579,0,0,0,1.155-.069c-.614-10.242-.458-17.429.453-20.783a1.815,1.815,0,0,1,1.745-1.342h5.513a.478.478,0,0,1,.469.57l0,.015a.477.477,0,0,1-.471.393H17.431a2.721,2.721,0,0,0-2.741,1.916,34.789,34.789,0,0,0,0,15.71,2.721,2.721,0,0,0,2.741,1.916h2.942a.478.478,0,0,1,.471.393l0,.023a.478.478,0,0,1-.47.562H18.441a2.146,2.146,0,0,0-2.132,1.982L15.7,33.056a1.143,1.143,0,0,1-2.278.024c-.162-1.733-.4-4.475-.619-7.7a.579.579,0,1,0-1.155.078c.219,3.235.459,5.988.622,7.727a2.3,2.3,0,0,0,4.585-.048l.612-8.416a.984.984,0,0,1,.978-.909h1.936A1.632,1.632,0,0,0,21.631,23.229Z" transform="translate(-11.143 0)"/>
    </g>
  </g>
</svg>
