<svg xmlns="http://www.w3.org/2000/svg" viewBox="-1743 1416.6 78 78">
  <defs>
    <style>
      .cls-1, .cls-3, .cls-4 {
        fill: #fff;
      }

      .cls-1 {
        opacity: 0.7;
      }

      .cls-2 {
        fill: #aeafb0;
      }

      .cls-3 {
        opacity: 0.6;
      }

      .cls-5, .cls-8 {
        fill: #332e2f;
      }

      .cls-5 {
        opacity: 0.1;
      }

      .cls-6 {
        fill: #ec879f;
      }

      .cls-7 {
        fill: #e6e2df;
      }

      .cls-10, .cls-8 {
        opacity: 0.2;
      }

      .cls-9 {
        fill: #e2e3e4;
      }
    </style>
  </defs>
  <g id="cat2" transform="translate(-1743 1416.6)">
    <circle id="Ellipse_7" data-name="Ellipse 7" class="cls-1" cx="39" cy="39" r="39" transform="translate(0 0)"/>
    <g id="make-up" transform="translate(23.4 22.533)">
      <circle id="Ellipse_3" data-name="Ellipse 3" class="cls-2" cx="13.161" cy="13.161" r="13.161" transform="translate(3.355 0.495)"/>
      <g id="Group_12" data-name="Group 12" transform="translate(6.358 3.499)">
        <circle id="Ellipse_4" data-name="Ellipse 4" class="cls-3" cx="10.157" cy="10.157" r="10.157"/>
        <path id="Path_13" data-name="Path 13" class="cls-4" d="M115.439,78.635a10.187,10.187,0,0,0,5.972,5.972l13.068-13.067a10.187,10.187,0,0,0-5.972-5.972Z" transform="translate(-114.848 -64.93)"/>
      </g>
      <path id="Path_14" data-name="Path 14" class="cls-5" d="M125,56.033a13.161,13.161,0,0,1-18.533,18.533A13.161,13.161,0,1,0,125,56.033Z" transform="translate(-100.083 -52.498)"/>
      <path id="Path_15" data-name="Path 15" class="cls-6" d="M45.242,141.351v-7.314a.661.661,0,0,0-1.059-.527L41.6,135.46a.661.661,0,0,0-.262.527v5.364Z" transform="translate(-39.064 -124.961)"/>
      <path id="Path_16" data-name="Path 16" class="cls-6" d="M189.448,397.654H177.005v6.057a.661.661,0,0,0,.661.661h11.122a.661.661,0,0,0,.661-.661v-6.057Z" transform="translate(-166.172 -372.568)"/>
      <path id="Path_17" data-name="Path 17" class="cls-7" d="M188.446,352.1h-10.44a1,1,0,0,0-1,1v2.251h12.443V353.1A1,1,0,0,0,188.446,352.1Z" transform="translate(-166.172 -329.89)"/>
      <path id="Path_26" data-name="Path 26" class="cls-4" d="M0,0H12.443V2.425H0Z" transform="translate(10.833 27.116)"/>
      <path id="Path_18" data-name="Path 18" class="cls-8" d="M188.447,352.1H188.1v7.581a.661.661,0,0,1-.661.661H177.005v.689a.661.661,0,0,0,.661.661h11.122a.661.661,0,0,0,.661-.661V353.1A1,1,0,0,0,188.447,352.1Z" transform="translate(-166.172 -329.89)"/>
      <path id="Path_19" data-name="Path 19" class="cls-7" d="M425.1,199.64H422.73v18.023a1.186,1.186,0,0,0,1.186,1.186h0a1.186,1.186,0,0,0,1.186-1.186V199.64Z" transform="translate(-396.395 -187.046)"/>
      <rect id="Rectangle_7" data-name="Rectangle 7" class="cls-7" width="2.373" height="3.478" transform="translate(26.335 9.773)"/>
      <path id="Path_20" data-name="Path 20" class="cls-6" d="M390.774,29.739a3.624,3.624,0,0,0-3-5.379l-.135,0a3.945,3.945,0,0,0-.924.109,3.621,3.621,0,0,0-2.281,5.268l1.993,3.481H388.8Z" transform="translate(-360.09 -22.821)"/>
      <path id="Path_21" data-name="Path 21" class="cls-9" d="M27.281,249.742h-6.5v-3.124a.661.661,0,0,1,.661-.661H26.62a.661.661,0,0,1,.661.661S27.281,249.742,27.281,249.742Z" transform="translate(-19.807 -230.441)"/>
      <path id="Path_22" data-name="Path 22" class="cls-4" d="M19.932,312.021h-6.14a.661.661,0,0,1-.661-.661V299.746a.661.661,0,0,1,.661-.661h6.14a.661.661,0,0,1,.661.661v11.615A.661.661,0,0,1,19.932,312.021Z" transform="translate(-12.636 -280.217)"/>
      <rect id="Rectangle_8" data-name="Rectangle 8" class="cls-6" width="7.462" height="5.747" transform="translate(0.495 22.212)"/>
      <path id="Path_23" data-name="Path 23" class="cls-8" d="M78.486,143.853v-2.716a.661.661,0,0,0-.661-.661h-.636v-6.44a.661.661,0,0,0-1.059-.527l-.661.5c0,.009,0,.018,0,.028v6.44h.636a.661.661,0,0,1,.661.661v2.716a.66.66,0,0,1,.483.636V156.1a.661.661,0,0,1-.661.661h1.717a.661.661,0,0,0,.661-.661V144.488A.66.66,0,0,0,78.486,143.853Z" transform="translate(-71.042 -124.96)"/>
      <path id="Path_24" data-name="Path 24" class="cls-10" d="M430.589,24.372h0c-.058,0-.117-.009-.176-.011l-.135,0h-.005c-.074,0-.147,0-.22.007h-.018c-.07,0-.141.011-.21.019l-.028,0-.02,0h0c-.09.011-.18.027-.268.044a3.636,3.636,0,0,1,2.385,5.3l-1.976,3.476h0V53.44a1.184,1.184,0,0,1-.427.911,1.186,1.186,0,0,0,1.946-.911V33.217h0l1.976-3.476A3.627,3.627,0,0,0,430.589,24.372Z" transform="translate(-402.73 -22.822)"/>
      <path id="Path_25" data-name="Path 25" d="M36.363,3.1a4.03,4.03,0,0,0-3.384-2.057l-.151,0h0a4.472,4.472,0,0,0-1.039.123,4.009,4.009,0,0,0-2.138,1.318A13.55,13.55,0,0,0,21.795,0a13.974,13.974,0,0,0-7.953,2.373.5.5,0,0,0,.56.817,12.988,12.988,0,0,1,7.392-2.2,12.566,12.566,0,0,1,7.312,2.323c-.026.053-.052.105-.076.159a4.143,4.143,0,0,0-.341,2.062A10.655,10.655,0,0,0,11.952,9.577v-.5A1.155,1.155,0,0,0,10.375,8a11.571,11.571,0,0,1,2.562-3.619.5.5,0,0,0-.684-.716,12.661,12.661,0,0,0-3.31,5.29.5.5,0,0,0-.02.09L7.517,10.1a1.161,1.161,0,0,0-.459.921v4h-.8a.5.5,0,0,0-.5.5v2.857a.5.5,0,0,0-.483.495V28.943a.5.5,0,0,0,.991,0v-.488H12.74v2.854H6.27v-.416a.5.5,0,0,0-.991,0V31.8a.5.5,0,0,0,.5.5h7.461a.5.5,0,0,0,.5-.5V24.677a13.659,13.659,0,0,0,1.886,1.16V31.8a.5.5,0,0,0,.5.5H28.556a.5.5,0,0,0,.5-.5V25.226a13.713,13.713,0,0,0,2.067-1.594v6.985a1.682,1.682,0,0,0,3.364,0V18.971a13.119,13.119,0,0,0,.969-5.315,13.673,13.673,0,0,0-.537-3.8l1.482-2.7A4.128,4.128,0,0,0,36.363,3.1ZM12.15,13.075a9.662,9.662,0,0,1,17.1-5.564.492.492,0,0,0,.216.151L31.1,10.633c.006.012.014.022.021.033v5.8a.493.493,0,0,0-.026.061,10.325,10.325,0,0,1-3.9,5.193H24.136a.5.5,0,1,0,0,.991h3.418a.507.507,0,0,1,.506.506V24.59H16.608V23.214a.507.507,0,0,1,.506-.506h5.071a.5.5,0,1,0,0-.991H17.114a1.49,1.49,0,0,0-.51.089,9.705,9.705,0,0,1-2.873-2.828v-.111a.5.5,0,0,0-.359-.476c-.028-.05-.057-.1-.084-.149a.493.493,0,0,0-.04-.062V15.516a.5.5,0,0,0-.5-.5h-.524a9.78,9.78,0,0,1-.1-1.364C12.133,13.463,12.139,13.268,12.15,13.075ZM33.491,12.1H32.109V10.89h1.382ZM28.06,26.62H16.608V25.581H28.06Zm-11.452.991H28.06v1.435H16.608ZM6.27,19.363H12.74v2.354H6.27Zm1.779-8.338a.165.165,0,0,1,.065-.131L10.7,8.942a.164.164,0,0,1,.263.131v5.947H8.049Zm-1.3,4.986h5.5v2.295h-5.5ZM6.27,27.464V22.708H12.74v.868a.5.5,0,0,0,0,.147v3.741Zm7.461-5.252v-1.6a10.7,10.7,0,0,0,2.083,1.856,1.487,1.487,0,0,0-.2.742v1.5a12.7,12.7,0,0,1-1.886-1.294V22.212Zm2.876,9.1V30.037H28.06v1.272Zm14.32-8.877a12.741,12.741,0,0,1-1.877,1.606v-.823a1.5,1.5,0,0,0-.6-1.2,11.387,11.387,0,0,0,2.667-3.156v3.448A.494.494,0,0,0,30.928,22.432Zm2.563,8.186a.691.691,0,0,1-1.382,0V13.09h1.382V30.618ZM35.528,6.68,33.759,9.9H31.824L30.055,6.675a3.134,3.134,0,0,1-.293-2.3l.964,1.612a.5.5,0,1,0,.85-.509L30.269,3.3a3.026,3.026,0,0,1,1.748-1.169c.1-.025.208-.045.313-.06V5.736a.5.5,0,1,0,.991,0V2.071A3.038,3.038,0,0,1,35.35,3.353L34.076,5.482a.5.5,0,1,0,.85.509l.914-1.528A3.135,3.135,0,0,1,35.528,6.68Z" transform="translate(-5.279 0)"/>
    </g>
  </g>
</svg>
