<svg xmlns="http://www.w3.org/2000/svg" viewBox="-1743 1510.2 78 78">
  <defs>
    <style>
      .cls-1, .cls-6 {
        fill: #fff;
      }

      .cls-1 {
        opacity: 0.7;
      }

      .cls-2 {
        fill: #d8d8e4;
      }

      .cls-3 {
        fill: #ec879f;
      }

      .cls-4 {
        fill: #edf2fa;
      }

      .cls-5 {
        fill: #e6e2df;
      }

      .cls-7 {
        fill: #fff0f4;
      }
    </style>
  </defs>
  <g id="cat3" transform="translate(-1743 1510.2)">
    <circle id="Ellipse_8" data-name="Ellipse 8" class="cls-1" cx="39" cy="39" r="39" transform="translate(0 0)"/>
    <g id="oil" transform="translate(27.733 21.667)">
      <rect id="Rectangle_9" data-name="Rectangle 9" class="cls-2" width="6.705" height="4.366" transform="translate(8.244 0.682)"/>
      <path id="Path_27" data-name="Path 27" class="cls-3" d="M103.108,140.466h7.558a11.016,11.016,0,0,0,7.161-10.212,10.906,10.906,0,0,0-5.015-9.2,5.5,5.5,0,0,1-2.547-4.615V114h-6.7v2.4a5.476,5.476,0,0,1-2.507,4.625,10.918,10.918,0,0,0,2.054,19.442Z" transform="translate(-95.317 -106.223)"/>
      <path id="Path_28" data-name="Path 28" class="cls-4" d="M206.966,118.752a5.4,5.4,0,0,1-.522-2.316V114h-6.7v2.4a5.561,5.561,0,0,1-.521,2.352Z" transform="translate(-191.496 -106.224)"/>
      <path id="Path_29" data-name="Path 29" class="cls-5" d="M189.658,74h-7.367a1.364,1.364,0,0,0-1.364,1.364h0a1.364,1.364,0,0,0,1.364,1.364h7.367a1.364,1.364,0,0,0,1.364-1.364h0A1.364,1.364,0,0,0,189.658,74Z" transform="translate(-174.452 -68.952)"/>
      <circle id="Ellipse_6" data-name="Ellipse 6" class="cls-6" cx="7.367" cy="7.367" r="7.367" transform="translate(4.229 16.988)"/>
      <path id="Path_30" data-name="Path 30" class="cls-5" d="M192.254,284.117a2.913,2.913,0,0,0-2.956-.681,3.155,3.155,0,0,0-.471.2,3.153,3.153,0,0,0,.041-.509,2.913,2.913,0,0,0-1.561-2.6,2.919,2.919,0,0,0-1.561,2.6,3.157,3.157,0,0,0,.041.509,3.154,3.154,0,0,0-.472-.2,1.769,1.769,0,1,0-.965,2.969,3.14,3.14,0,0,0,.5.119,3.151,3.151,0,0,0-.335.391,2.913,2.913,0,0,0-.266,3.022,2.919,2.919,0,0,0,2.792-1.187,3.149,3.149,0,0,0,.267-.438,3.149,3.149,0,0,0,.267.438,2.919,2.919,0,0,0,2.792,1.187,2.913,2.913,0,0,0-.266-3.022,3.149,3.149,0,0,0-.335-.391,3.146,3.146,0,0,0,.5-.119,2.918,2.918,0,0,0,1.991-2.286S192.254,284.117,192.254,284.117Zm-4.948,1.608h0l0,0h0v0h0l0,0h0Z" transform="translate(-175.785 -261.386)"/>
      <g id="Group_14" data-name="Group 14" transform="translate(6.575 21.898)">
        <path id="Path_31" data-name="Path 31" class="cls-7" d="M256.953,321.171l-.114.04-.023.009-.11.043h0l-.108.048-.01,0-.107.052a2.929,2.929,0,0,0-1.516,2.089v0l0,0a2.929,2.929,0,0,1,2.455.8h0a3.146,3.146,0,0,0,.5-.119,1.769,1.769,0,1,0-.965-2.969Z" transform="translate(-250.01 -321.017)"/>
        <path id="Path_32" data-name="Path 32" class="cls-7" d="M184.372,324.136l.116.035.024.007.114.03h0l.115.025.011,0,.117.02a2.929,2.929,0,0,0,2.454-.8h0v0a2.929,2.929,0,0,1-1.518-2.088v0a3.142,3.142,0,0,0-.473-.2,1.769,1.769,0,1,0-.965,2.969Z" transform="translate(-182.38 -321.014)"/>
      </g>
      <path id="Path_33" data-name="Path 33" d="M103.864,14.254a4.8,4.8,0,0,1-2.234-4.041v-1.8a2.046,2.046,0,0,0,0-4V.682A.682.682,0,0,0,100.948,0h-6.7a.682.682,0,0,0-.682.682v3.7a2.046,2.046,0,0,0,0,4.054v1.738a4.767,4.767,0,0,1-2.192,4.05,11.6,11.6,0,0,0,2.183,20.657.682.682,0,0,0,.238.043h7.558a.682.682,0,0,0,.239-.043,11.7,11.7,0,0,0,7.6-10.85A11.558,11.558,0,0,0,103.864,14.254Zm-3.6-12.89v3h-5.34v-3ZM93.157,6.412a.683.683,0,0,1,.682-.682h7.367a.682.682,0,0,1,0,1.364H93.839A.683.683,0,0,1,93.157,6.412Zm8.066,27.149H93.915A10.236,10.236,0,0,1,92.1,15.377a6.063,6.063,0,0,0,2.041-2.166h2.223a.682.682,0,0,0,0-1.364H94.7a6.306,6.306,0,0,0,.224-1.67V8.459h5.34v1.754a6.161,6.161,0,0,0,2.86,5.188,10.2,10.2,0,0,1,4.7,8.63A10.325,10.325,0,0,1,101.223,33.562Z" transform="translate(-85.999 0)"/>
      <path id="Path_34" data-name="Path 34" d="M181.875,274.285a3.593,3.593,0,0,0-1.882-2.733.682.682,0,0,0-.612-.019,3.583,3.583,0,0,0-1.919,2.75,3.583,3.583,0,0,0-3.209.976.682.682,0,0,0-.171.587,3.591,3.591,0,0,0,2.018,2.635,3.583,3.583,0,0,0-.064,3.353.682.682,0,0,0,.506.345,3.3,3.3,0,0,0,.488.034,3.534,3.534,0,0,0,2.639-1.137,3.591,3.591,0,0,0,3.128,1.1.682.682,0,0,0,.506-.345,3.583,3.583,0,0,0-.063-3.352,3.591,3.591,0,0,0,2.015-2.634.682.682,0,0,0-.171-.588A3.583,3.583,0,0,0,181.875,274.285Zm-7.793,1.566c0,.016.007.031.011.046C174.088,275.878,174.085,275.862,174.082,275.85Zm5.585-2.893a2.182,2.182,0,0,1,.869,1.778c0,.032,0,.064,0,.1a3.478,3.478,0,0,0-1.2,1.365,2.262,2.262,0,0,1,.335-3.238Zm-4.148,3.012a2.19,2.19,0,0,1,1.959-.274c.03.01.059.022.089.033a3.479,3.479,0,0,0,.927,1.563,2.26,2.26,0,0,1-2.975-1.322Zm1.027,6.209.049,0Zm.559-1.329a2.2,2.2,0,0,1,.343-1.948l.056-.075c.053,0,.106,0,.158,0a3.492,3.492,0,0,0,1.617-.4,2.26,2.26,0,0,1-2.175,2.421Zm5.129,0a2.181,2.181,0,0,1-1.748-.928c-.018-.025-.035-.05-.052-.075a3.479,3.479,0,0,0,.17-1.816,2.266,2.266,0,0,1,1.63,2.818Zm1.583-4.877a2.182,2.182,0,0,1-1.422,1.376l-.087.027a3.479,3.479,0,0,0-1.674-.723,2.266,2.266,0,0,1,3.184-.68Z" transform="translate(-168.063 -252.951)"/>
      <path id="Path_35" data-name="Path 35" d="M153.537,244.138a.682.682,0,1,0-1.269.5,6.685,6.685,0,1,1-3.852-3.8.682.682,0,1,0,.482-1.276,8.049,8.049,0,1,0,4.639,4.574Z" transform="translate(-134.452 -222.739)"/>
      <path id="Path_36" data-name="Path 36" d="M322.237,271.5a.682.682,0,0,0,.967-.963l-.027-.027a.682.682,0,1,0-.961.969Z" transform="translate(-305.914 -251.871)"/>
      <path id="Path_37" data-name="Path 37" d="M265.681,175.034a.682.682,0,1,0-.482-.2A.688.688,0,0,0,265.681,175.034Z" transform="translate(-252.789 -161.823)"/>
    </g>
  </g>
</svg>
