<svg xmlns="http://www.w3.org/2000/svg" viewBox="-1743 1602.933 78 78">
  <defs>
    <style>
      .cls-1 {
        fill: #fff;
        opacity: 0.7;
      }

      .cls-2 {
        fill: #727272;
      }

      .cls-3 {
        fill: #e6e2df;
      }

      .cls-4 {
        fill: #ec879f;
      }
    </style>
  </defs>
  <g id="cat4" transform="translate(-1743 1602.933)">
    <circle id="Ellipse_9" data-name="Ellipse 9" class="cls-1" cx="39" cy="39" r="39" transform="translate(0 0)"/>
    <g id="nail-polish_1_" data-name="nail-polish (1)" transform="translate(23.653 20.627)">
      <path id="Path_38" data-name="Path 38" class="cls-2" d="M351.7,278.505h7.541v11.312a3.771,3.771,0,0,1-3.771,3.771h0a3.771,3.771,0,0,1-3.771-3.771V278.505Z" transform="translate(-330.761 -259.84)"/>
      <path id="Path_39" data-name="Path 39" class="cls-3" d="M393.12,278.505v11.312a3.772,3.772,0,0,1-2.6,3.585,3.765,3.765,0,0,0,1.169.186h0a3.771,3.771,0,0,0,3.771-3.771V278.505Z" transform="translate(-366.983 -259.84)"/>
      <rect id="Rectangle_10" data-name="Rectangle 10" class="cls-3" width="8.296" height="4.525" transform="translate(4.992 11.124)"/>
      <path id="Path_40" data-name="Path 40" class="cls-4" d="M370.254,15.981h0L372.88,8.44h-5.43Z" transform="translate(-345.461 -7.874)"/>
      <path id="Path_41" data-name="Path 41" class="cls-3" d="M392.768,8.44l-1.5,4.294,1.207,3.247,2.626-7.541Z" transform="translate(-367.687 -7.874)"/>
      <path id="Path_42" data-name="Path 42" class="cls-4" d="M56.346,233.495H50.412a2.64,2.64,0,0,0-2.6,3.073l2.5,15.026H62.379l2.5-15.026a2.639,2.639,0,0,0-2.6-3.073Z" transform="translate(-47.206 -217.847)"/>
      <path id="Path_43" data-name="Path 43" class="cls-3" d="M231.7,233.495h-2.338a2.639,2.639,0,0,1,2.6,3.073l-2.5,15.026H231.8l2.5-15.026A2.639,2.639,0,0,0,231.7,233.495Z" transform="translate(-216.63 -217.847)"/>
      <path id="Path_44" data-name="Path 44" d="M351.364,18.1h-3.116V8.2L350.842.752A.566.566,0,0,0,350.308,0h-5.43a.566.566,0,0,0-.53.763l2.768,7.446V18.1h-3.294a.566.566,0,0,0-.566.566V29.977a4.336,4.336,0,1,0,8.672,0V18.665A.566.566,0,0,0,351.364,18.1ZM349.512,1.131l-1.848,5.306-1.973-5.306h3.82ZM350.8,29.977a3.205,3.205,0,1,1-6.41,0V19.231h6.41Z" transform="translate(-322.889)"/>
      <path id="Path_45" data-name="Path 45" d="M54.412,162.062h-1.22v-1.131h.189a.566.566,0,0,0,0-1.131h-.189v-1.7a.566.566,0,0,0-.566-.566h-8.3a.566.566,0,0,0-.566.566v1.7h-.189a.566.566,0,0,0,0,1.131h.189v1.131H42.544a3.205,3.205,0,0,0-3.161,3.732l2.5,15.026a.566.566,0,0,0,.558.473H54.511a.566.566,0,0,0,.558-.473l2.5-15.026a3.205,3.205,0,0,0-3.161-3.732ZM44.9,158.668H52.06V159.8H44.9Zm11.562,6.94-2.426,14.553H42.924L40.5,165.608a2.074,2.074,0,0,1,2.046-2.415H44.33a.566.566,0,0,0,.566-.566v-1.7H52.06v1.131H46.594a.566.566,0,1,0,0,1.131h7.818a2.074,2.074,0,0,1,2.046,2.415Z" transform="translate(-39.338 -146.979)"/>
    </g>
  </g>
</svg>
