<svg xmlns="http://www.w3.org/2000/svg" viewBox="-1743 1696.533 78 78">
  <defs>
    <style>
      .cls-1, .cls-4 {
        fill: #fff;
      }

      .cls-1 {
        opacity: 0.7;
      }

      .cls-2 {
        fill: #e6e2df;
      }

      .cls-3 {
        fill: #ec879f;
      }

      .cls-5 {
        fill: #727272;
      }

      .cls-6 {
        fill: #131313;
      }
    </style>
  </defs>
  <g id="cat5" transform="translate(-1743 1696.533)">
    <circle id="Ellipse_10" data-name="Ellipse 10" class="cls-1" cx="39" cy="39" r="39" transform="translate(0 0)"/>
    <g id="tattoo" transform="matrix(0.951, 0.309, -0.309, 0.951, 31.749, 18.2)">
      <path id="Path_46" data-name="Path 46" class="cls-2" d="M1.3,0H.565a.565.565,0,1,0,0,1.131H1.3Z" transform="translate(1.131 10.177)"/>
      <path id="Path_47" data-name="Path 47" class="cls-2" d="M0,0V2.224a.191.191,0,0,0,.188.188H.942a.191.191,0,0,0,.188-.188V0Z" transform="translate(8.538 28.95)"/>
      <rect id="Rectangle_11" data-name="Rectangle 11" class="cls-2" width="1.131" height="1.131" transform="translate(8.538 12.439)"/>
      <path id="Path_48" data-name="Path 48" class="cls-3" d="M4.862.565H1.7A.565.565,0,0,1,1.131,0H0V8.822H1.131A.565.565,0,0,1,1.7,8.257H4.862a.565.565,0,0,1,.565.565H6.559V0H5.428A.565.565,0,0,1,4.862.565Zm0,6.616H1.7a.565.565,0,0,1,0-1.131H4.862a.565.565,0,1,1,0,1.131Zm0-2.206H1.7a.565.565,0,1,1,0-1.131H4.862a.565.565,0,1,1,0,1.131Zm0-2.206H1.7a.565.565,0,1,1,0-1.131H4.862a.565.565,0,1,1,0,1.131Z" transform="translate(5.824 16.849)"/>
      <path id="Path_49" data-name="Path 49" class="cls-4" d="M5.428,0a.565.565,0,0,1-.565.565H1.7A.565.565,0,0,1,1.131,0H0A2.151,2.151,0,0,0,2.149,2.149H4.41A2.151,2.151,0,0,0,6.559,0Z" transform="translate(5.824 25.671)"/>
      <path id="Path_50" data-name="Path 50" class="cls-4" d="M4.41,0H2.149A2.151,2.151,0,0,0,0,2.149H1.131A.565.565,0,0,1,1.7,1.583H4.862a.565.565,0,0,1,.565.565H6.559A2.151,2.151,0,0,0,4.41,0Z" transform="translate(5.824 14.7)"/>
      <path id="Path_51" data-name="Path 51" class="cls-3" d="M0,0V5.654H3.242V1.7a.565.565,0,0,1,.565-.565V0Z" transform="translate(18.564 3.392)"/>
      <path id="Path_52" data-name="Path 52" class="cls-3" d="M0,0V5.654H3.242V1.7a.565.565,0,0,1,.565-.565S3.808,0,3.808,0Z" transform="translate(11.93 3.392)"/>
      <rect id="Rectangle_12" data-name="Rectangle 12" class="cls-5" width="20.506" height="1.131" transform="translate(5.824 10.177)"/>
      <rect id="Rectangle_13" data-name="Rectangle 13" class="cls-2" width="16.661" height="1.131" transform="translate(9.668 1.131)"/>
      <path id="Path_53" data-name="Path 53" class="cls-6" d="M26.9,3.392a.565.565,0,0,0,.565-.565V.565A.565.565,0,0,0,26.9,0H9.1a.565.565,0,0,0-.565.565V9.046H5.258a.565.565,0,0,0-.565.565v.565H3.562V9.612A.565.565,0,0,0,3,9.046H1.7a1.7,1.7,0,0,0,0,3.392H3a.565.565,0,0,0,.565-.565v-.565H4.693v.565a.565.565,0,0,0,.565.565H7.407v1.181a3.284,3.284,0,0,0-2.714,3.23v8.822A3.284,3.284,0,0,0,7.407,28.9v2.274a1.32,1.32,0,0,0,1.131,1.3v2.388a.565.565,0,0,0,1.131,0V32.478a1.32,1.32,0,0,0,1.131-1.3V28.9a3.284,3.284,0,0,0,2.714-3.23V16.849a3.284,3.284,0,0,0-2.714-3.23V12.439H26.9a.565.565,0,0,0,.565-.565V9.612a.565.565,0,0,0-.565-.565H25.2V3.392ZM1.131,10.743a.566.566,0,0,1,.565-.565h.735v1.131H1.7A.566.566,0,0,1,1.131,10.743Zm25.2.565H5.824V10.177H26.33v1.131ZM12.382,25.671a2.151,2.151,0,0,1-2.149,2.149H7.972a2.151,2.151,0,0,1-2.149-2.149V16.849A2.151,2.151,0,0,1,7.972,14.7h2.262a2.151,2.151,0,0,1,2.149,2.149Zm-2.9,5.692H8.726a.191.191,0,0,1-.188-.188V28.95H9.668v2.224A.191.191,0,0,1,9.48,31.363ZM9.668,13.57H8.538V12.439H9.668Zm0-12.439H26.33V2.262H9.668ZM16.3,9.046V5.089a.565.565,0,1,0-1.131,0V9.046H11.93V3.392h5.5V9.046ZM9.668,3.392H10.8V9.046H9.668Zm14.4,5.654H22.937V5.089a.565.565,0,1,0-1.131,0V9.046H18.565V3.392h5.5Z" transform="translate(0 0)"/>
      <path id="Path_54" data-name="Path 54" class="cls-6" d="M.565,1.131H3.732A.565.565,0,1,0,3.732,0H.565a.565.565,0,1,0,0,1.131Z" transform="translate(6.955 25.106)"/>
      <path id="Path_55" data-name="Path 55" class="cls-6" d="M3.732,0H.565a.565.565,0,1,0,0,1.131H3.732A.565.565,0,1,0,3.732,0Z" transform="translate(6.955 22.9)"/>
      <path id="Path_56" data-name="Path 56" class="cls-6" d="M3.732,0H.565a.565.565,0,1,0,0,1.131H3.732A.565.565,0,1,0,3.732,0Z" transform="translate(6.955 20.695)"/>
      <path id="Path_57" data-name="Path 57" class="cls-6" d="M3.732,0H.565a.565.565,0,1,0,0,1.131H3.732A.565.565,0,1,0,3.732,0Z" transform="translate(6.955 18.489)"/>
      <path id="Path_58" data-name="Path 58" class="cls-6" d="M.565,1.131H3.732A.565.565,0,1,0,3.732,0H.565a.565.565,0,1,0,0,1.131Z" transform="translate(6.955 16.284)"/>
    </g>
  </g>
</svg>
