<svg xmlns="http://www.w3.org/2000/svg" viewBox="-1743 1790.133 78 78">
  <defs>
    <style>
      .cls-1 {
        fill: #fff;
        opacity: 0.7;
      }

      .cls-2 {
        fill: #727272;
      }

      .cls-3 {
        fill: #fff0f4;
      }

      .cls-4 {
        fill: #ec879f;
      }

      .cls-5 {
        fill: #e6e2df;
      }

      .cls-6 {
        fill: #000003;
      }
    </style>
  </defs>
  <g id="cat6" transform="translate(-1743 1790.133)">
    <circle id="Ellipse_11" data-name="Ellipse 11" class="cls-1" cx="39" cy="39" r="39" transform="translate(0 0)"/>
    <g id="woman" transform="translate(23.4 22.533)">
      <g id="Group_17" data-name="Group 17" transform="translate(0.67 0.67)">
        <g id="Group_15" data-name="Group 15" transform="translate(8.678 24.261)">
          <path id="Path_59" data-name="Path 59" class="cls-2" d="M165.752,403.712l2.88-4.1-4.012-2-.874-.436-1.2,2.437Z" transform="translate(-162.551 -397.174)"/>
          <path id="Path_60" data-name="Path 60" class="cls-2" d="M262.312,403.712l3.419-4.1-1.413-2.437-.874.436-4.012,2Z" transform="translate(-253.351 -397.174)"/>
        </g>
        <g id="Group_16" data-name="Group 16" transform="translate(7.186 9.923)">
          <path id="Path_61" data-name="Path 61" class="cls-3" d="M203.539,350.888v-3.565a7.531,7.531,0,0,1-8.024,0v3.565l4.012,2Z" transform="translate(-191.955 -336.114)"/>
          <path id="Path_62" data-name="Path 62" class="cls-3" d="M150.379,179.96a7.586,7.586,0,0,0,3.56-6.415v-4.794H138.794v4.794a7.563,7.563,0,0,0,11.585,6.415Z" transform="translate(-138.794 -168.751)"/>
        </g>
        <path id="Path_63" data-name="Path 63" class="cls-4" d="M93.677,19.064c-1.522-1.625-2.27-2.554-2.6-3.566a2.206,2.206,0,0,1,.631-2.364,11.954,11.954,0,0,0-3.8-1.958,11.763,11.763,0,0,0-3.423-.509A11.625,11.625,0,0,0,72.772,22.379l.281,9.319a1.542,1.542,0,0,1,1.655,1.6,7.339,7.339,0,0,1-1.034,2.933l-.485-.015.1,3.428L78.4,37.365l1.2-2.437.874.436V31.8a7.585,7.585,0,0,1-3.56-6.415V20.59H92.057v4.794A7.586,7.586,0,0,1,88.5,31.8v3.565l.874-.436,1.413,2.437,4.892,2.277.52-17.264a10.88,10.88,0,0,0-.626-3.986C95.045,18.6,94.424,18.818,93.677,19.064Z" transform="translate(-69.725 -10.667)"/>
        <path id="Path_64" data-name="Path 64" class="cls-5" d="M28.258,350.145a7.338,7.338,0,0,0,1.034-2.932,1.542,1.542,0,0,0-1.655-1.6,1.526,1.526,0,0,0-1.283,1.361,1.474,1.474,0,1,0-1.17,2.706,6.231,6.231,0,0,0,2.589.45Z" transform="translate(-24.309 -324.581)"/>
        <path id="Path_65" data-name="Path 65" class="cls-5" d="M369.359,46.319a2.091,2.091,0,1,0-2.691-3.2c-.912-1.651-2.381-1.626-3.265-.846a2.206,2.206,0,0,0-.631,2.364c.327,1.011,1.075,1.94,2.6,3.566.748-.246,1.369-.462,1.893-.671A6.311,6.311,0,0,0,369.359,46.319Z" transform="translate(-341.418 -39.805)"/>
      </g>
      <g id="Group_18" data-name="Group 18" transform="translate(0)">
        <path id="Path_66" data-name="Path 66" class="cls-6" d="M43.418,4.5a2.555,2.555,0,0,0-2.4-1.665,3.112,3.112,0,0,0-1.246.274A2.712,2.712,0,0,0,37.6,1.952a2.609,2.609,0,0,0-1.306.359A12.653,12.653,0,0,0,32.748.565a.658.658,0,0,0-.142-.044A12.436,12.436,0,0,0,29.058,0a12.61,12.61,0,0,0-9,3.818A11.748,11.748,0,0,0,16.677,12.4l.265,8.8a2.116,2.116,0,0,0-1.054,1.1,2.026,2.026,0,0,0-2.2,1.555,2.227,2.227,0,0,0,1.183,2.506,5.591,5.591,0,0,0,2.24.489l.085,2.811a.67.67,0,0,0,.942.591l4.632-2.064,2.879,3.688a.67.67,0,0,0,.528.258h.017a.67.67,0,0,0,.531-.284l2.332-3.321,2.332,3.321a.67.67,0,0,0,.52.284h.028a.67.67,0,0,0,.514-.241l3.089-3.706,4.425,2.06a.67.67,0,0,0,.952-.587L41.44,12.4a11.534,11.534,0,0,0-.469-3.629,6.046,6.046,0,0,0,1.73-1.1A2.885,2.885,0,0,0,43.418,4.5ZM14.992,24.17a.672.672,0,0,1,.725-.531,1.654,1.654,0,0,1,.445.068A.669.669,0,0,0,17,23.2c.118-.542.39-.841.767-.841a.858.858,0,0,1,.6.262.888.888,0,0,1,.251.66,5.966,5.966,0,0,1-.774,2.265,5.964,5.964,0,0,1-2.363-.38A.882.882,0,0,1,14.992,24.17Zm11.157,6.175-2.387-3.058.714-1.455,3.586,1.789ZM22.155,11.262H35.961v4.125A6.9,6.9,0,0,1,32.777,21.2a.669.669,0,0,0-.119.074,6.89,6.89,0,0,1-7.2,0,.664.664,0,0,0-.118-.074,6.9,6.9,0,0,1-3.185-5.814V11.262Zm6.9,12.367A8.194,8.194,0,0,0,32.4,22.92v2.032L29.058,26.62l-3.343-1.667V22.92A8.193,8.193,0,0,0,29.058,23.629Zm2.926,6.74L30.053,27.62l3.627-1.809.863,1.488ZM40.1,12.362l-.49,16.248-3.78-1.76-1.308-2.255a.669.669,0,0,0-.783-.3V22.166a8.239,8.239,0,0,0,3.56-6.779V10.593a.67.67,0,0,0-.67-.67H26.082V8.007a.67.67,0,1,0-1.339,0V9.923h-1.43V8.007a.67.67,0,1,0-1.339,0V9.923h-.488a.67.67,0,0,0-.67.67v4.794a8.239,8.239,0,0,0,3.56,6.779v2.128a.668.668,0,0,0-.805.342l-1.088,2.219-3.977,1.772-.053-1.758a.669.669,0,0,0,.4-.338,7.8,7.8,0,0,0,1.1-3.216,2.223,2.223,0,0,0-1.673-2.226l-.263-8.727a10.42,10.42,0,0,1,3.007-7.611,11.263,11.263,0,0,1,8.036-3.412,11.071,11.071,0,0,1,2.753.351V3.764a.67.67,0,0,0,1.339,0V2.125A11.3,11.3,0,0,1,35.31,3.26a2.879,2.879,0,0,0-.294,2.447c.372,1.15,1.182,2.147,2.746,3.817a.67.67,0,0,0,.7.178c.463-.152.881-.294,1.261-.431A10.2,10.2,0,0,1,40.1,12.362ZM41.78,6.7a5.681,5.681,0,0,1-1.854,1.065l-.006,0-.042.017c-.409.162-.881.329-1.43.513a8.953,8.953,0,0,1-2.157-3,1.529,1.529,0,0,1,.21-1.406,1.557,1.557,0,0,1,.219-.243l.012-.011a1.324,1.324,0,0,1,.867-.344,1.657,1.657,0,0,1,1.365,1.015.67.67,0,0,0,.945.242,2.111,2.111,0,0,1,1.112-.378,1.225,1.225,0,0,1,1.153.821A1.533,1.533,0,0,1,41.78,6.7Z" transform="translate(-13.629)"/>
        <path id="Path_67" data-name="Path 67" class="cls-6" d="M171.87,207.255c.01-.157.3-.385.728-.385s.718.228.728.384a.67.67,0,0,0,.668.627h.044a.67.67,0,0,0,.625-.711,2.12,2.12,0,0,0-4.128,0,.67.67,0,1,0,1.336.086Z" transform="translate(-160.683 -192.63)"/>
        <path id="Path_68" data-name="Path 68" class="cls-6" d="M283.148,207.879a.67.67,0,0,0,.711-.625c.01-.157.3-.384.728-.384s.718.228.728.384a.67.67,0,0,0,.668.627h.044a.67.67,0,0,0,.625-.711,2.12,2.12,0,0,0-4.128,0A.67.67,0,0,0,283.148,207.879Z" transform="translate(-265.643 -192.629)"/>
        <path id="Path_69" data-name="Path 69" class="cls-6" d="M221.113,286.032c0,1.053,1.682,1.167,2.405,1.167s2.405-.114,2.405-1.167a.67.67,0,0,0-1.254-.328,4.34,4.34,0,0,1-2.3,0,.67.67,0,0,0-1.254.328Z" transform="translate(-208.089 -267.45)"/>
        <path id="Path_70" data-name="Path 70" class="cls-6" d="M191.356,86.024a.67.67,0,0,0-.67.67v.036a.67.67,0,0,0,1.339,0v-.036A.669.669,0,0,0,191.356,86.024Z" transform="translate(-179.572 -80.624)"/>
        <path id="Path_71" data-name="Path 71" class="cls-6" d="M303.961,79.589a.67.67,0,0,0-.67.67V80.3a.67.67,0,0,0,1.339,0v-.036A.67.67,0,0,0,303.961,79.589Z" transform="translate(-285.109 -74.593)"/>
        <path id="Path_72" data-name="Path 72" class="cls-6" d="M389.878,342.141a.67.67,0,0,0-.67.67V345.4a.67.67,0,1,0,1.339,0v-2.586A.67.67,0,0,0,389.878,342.141Z" transform="translate(-365.633 -320.665)"/>
        <path id="Path_73" data-name="Path 73" class="cls-6" d="M21.089,260.481a.67.67,0,0,0,.67-.67v-2.586a.67.67,0,0,0-1.339,0v2.586A.67.67,0,0,0,21.089,260.481Z" transform="translate(-19.993 -240.452)"/>
        <path id="Path_74" data-name="Path 74" class="cls-6" d="M477.707,172.7a.67.67,0,0,0-.67.67v2.586a.67.67,0,1,0,1.339,0v-2.586A.67.67,0,0,0,477.707,172.7Z" transform="translate(-447.949 -161.862)"/>
      </g>
    </g>
  </g>
</svg>
