<svg xmlns="http://www.w3.org/2000/svg" viewBox="379.117 1185.466 110.76 90.546">
  <defs>
    <style>
      .cls-1 {
        fill: #ec879f;
        stroke: rgba(0,0,0,0);
      }
    </style>
  </defs>
  <g id="Logo" transform="translate(373.721 1174.354)">
    <path id="Path_102" data-name="Path 102" class="cls-1" d="M39.38-35.2c4.576,0,9.02,1.628,9.02,8.316,0,13.728-24.244,34.056-34.76,34.056-2.948,0-4.928-1.1-4.928-4C8.932-8.008,28.952-26.8,38.5-26.8c1.5,0,3.476.748,3.388,2.112A3.9,3.9,0,0,0,42.152-26c0-2.068-2.112-3.256-4.708-3.256C26.224-29.26,6.16-11.44,5.9,1.98,5.852,6.116,9.328,9.2,14.608,9.2c16.1,0,36.828-20.724,36.828-34.452,0-7.964-5.984-11.132-13.288-11.132-15.18,0-31.988,13.2-32.164,21.428a3.457,3.457,0,0,0,3.168,3.652,2.273,2.273,0,0,0,1.32-.264c-.88-.308-1.716-.4-1.716-2.112C8.756-18.744,23.012-35.2,39.38-35.2ZM67.76-14.3c.572-.484-.836-2.86-1.892-2.86-1.5,0-9.24,5.94-14.168,10.78a17.777,17.777,0,0,0-2.244,2.464,82.672,82.672,0,0,1,5.016-7.216c1.32-1.716,2.948-3.564,3.52-3.52.352.044.528.264.528.088a3.637,3.637,0,0,0-2.772-2.816.858.858,0,0,0-.572.22A30.633,30.633,0,0,0,50.512-11.7a57.786,57.786,0,0,0-4.18,6.688C45.232-2.992,45.012-1.8,45.1-1.5,45.452-.22,46.508,1.188,47.828.88c-.66-.308-.352-1.5.836-2.9a20.706,20.706,0,0,1,1.584-1.848c3.256-3.52,9.724-8.844,13.332-10.472-2.288,2.068-7.392,9.416-7.392,11.924A3,3,0,0,0,56.98-.7,2.117,2.117,0,0,0,58.344.22c2.64,0,9.812-7.26,13.64-11.44.132-.132-.088-.484-.352-.264-2.816,2.64-9.108,8.668-11.88,9.416C59.84-4.136,66.66-13.42,67.76-14.3Zm3.3,8.36c4.928-.132,13.376-6.468,13.376-9.2,0-1.232-2.024-2.244-2.684-2.244-1.892,0-5.808,1.364-9.46,4.4A21.94,21.94,0,0,0,66.22-5.368a8.169,8.169,0,0,0-.616,2.9c0,1.188,1.76,2.772,3.124,2.772,5.852,0,14.608-8.4,17.908-11.484.132-.132-.176-.352-.308-.264-4.444,3.7-12.5,9.812-15.708,9.812-.968,0-1.364-.308-1.32-.836A7.479,7.479,0,0,1,71.06-5.94ZM83.028-16.06c-.264,1.672-7.568,8.8-11.4,9.24C73.084-9.152,78.144-14.476,83.028-16.06Z" transform="translate(0 48)"/>
    <path id="Path_103" data-name="Path 103" class="cls-1" d="M48.96-31.815c0-3.465-2.745-5.13-6.66-5.13C27.135-36.945.54-15.435,1.44.315c.27,5.49,4.455,7.605,9.27,7.7C20.565,8.235,37.53-3.2,45.45-10.935c.18-.09-.315-.315-.36-.27C34.425-2.565,20.655,5.04,12.2,5.04,8.73,5.04,5.94,4.005,5.625.225,4.635-12.33,28.89-35.82,42.75-35.82c2.79,0,4.545,1.17,4.545,3.2,0,3.645-7.11,7.65-10.17,7.65-.27-.36,1.08-2.025.99-2.025-.45,0-2.565,1.98-2.565,3.06,0,1.395.72,2.88,1.89,2.88C41.85-21.06,48.96-27.315,48.96-31.815ZM46.26-16.74C40.77-8.145,38.7-3.78,38.7-2.43a1.083,1.083,0,0,0,.135.675,4.943,4.943,0,0,0,1.62,1.8,1.58,1.58,0,0,0,1.44.18c2.7-.99,10.53-9.18,12.735-11.7a.207.207,0,0,0-.315-.27C51.66-9.315,44.19-1.98,42.255-2.205c1.08-2.88,4.455-8.6,8.37-14.535,2.25-3.285,4.095-5.94,6.03-8.415,1.98-2.43,4.905-6.66,6.48-5.94.855.5-.945-2.115-3.465-1.98a3.382,3.382,0,0,0-1.665.9,24.777,24.777,0,0,0-3.735,4.1C51.93-25.02,49.05-21.105,46.26-16.74Zm5,17.055c2.79-.225,9.945-7.56,13.86-11.79.135-.135-.09-.495-.4-.27C61.965-9.09,55.4-2.835,52.65-2.115,53.19-3.96,59.355-14.22,61.2-14.04c.36.045.585.27.585.09a3.909,3.909,0,0,0-2.835-2.925.939.939,0,0,0-.675.27C55.4-14.31,48.87-4.5,48.87-1.89A3.074,3.074,0,0,0,50.715.27,2.378,2.378,0,0,0,51.255.315ZM63.135-23.76c-1.17.36-2.88,3.285-2.835,4.59.045.81.99,1.755,1.62.945A13.726,13.726,0,0,1,65.3-21.15a1.342,1.342,0,0,1,.945-.045c.18,0-.09-.675-.5-1.125C65.16-23,64.17-23.9,63.135-23.76ZM63.36-2.385C63.36-5.535,72.18-15.7,77-15.8c.36.315-1.485,3.87-2.205,4.59-.09.135.135.225.225.135,1.485-1.125,3.69-2.79,3.69-4.5a3.42,3.42,0,0,0-2.565-2.2c-3.195,0-7.74,2.34-11.43,5.985-3.015,2.925-4.635,6.075-5,7.965a3.631,3.631,0,0,0-.09,1.35A3.64,3.64,0,0,0,62.91.315c5.58,0,14.265-8.145,18.135-11.79.135-.135-.18-.315-.315-.225C76.365-8.145,68.805-2.07,64.665-1.62,64.26-1.575,63.36-1.665,63.36-2.385Zm14.58-8.46a3.52,3.52,0,0,0,.135,1.89c-.45.9-.945,1.8-1.35,2.7-1.44,2.925-1.44,4.41-1.35,4.77A5.378,5.378,0,0,0,76.95.315,1.589,1.589,0,0,0,78.435.54c-2.025-.225.45-3.69,1.53-5.715C83.025.09,89.1,5.67,94.905,5.67a8.729,8.729,0,0,0,6.165-2.565c.225-.225-.135-.27-.27-.135a7.552,7.552,0,0,1-4.635,1.62C90.27,4.59,84.33-2.3,82.4-7.29c5,.45,14.175-5.355,14.175-8.685,0-.945-1.17-2.835-2.16-2.835-2.205,0-7.6,4.185-11.16,7.965,2.385-3.825,5.76-8.955,8.46-12.375,0,0,2.205-2.835,2.7-3.42,2.655-3.06,4.365-4.77,5.58-4.185.81.5-.9-2.16-3.51-2.16a3.233,3.233,0,0,0-1.71.81A39.237,39.237,0,0,0,89.1-25.74a151.606,151.606,0,0,0-9.18,13.635A2.521,2.521,0,0,0,77.94-10.845Zm14.805-6.03C91.4-14.175,86.22-8.37,82.26-7.83a3.082,3.082,0,0,1-.27-.9C82.44-9.36,89.64-16.11,92.745-16.875Z" transform="translate(14.513 93.145)"/>
  </g>
</svg>
