<svg xmlns="http://www.w3.org/2000/svg" viewBox="2612 4586 70 113">
  <defs>
    <style>
      .cls-1, .cls-3 {
        fill: #ec879f;
      }

      .cls-2 {
        fill: rgba(255,248,249,0);
        stroke: #ec879f;
        stroke-width: 2.5px;
      }

      .cls-3 {
        stroke: rgba(0,0,0,0);
      }

      .cls-4 {
        stroke: none;
      }

      .cls-5 {
        fill: none;
      }
    </style>
  </defs>
  <g id="upload" transform="translate(2020 4151)">
    <path id="User_image" class="cls-1" d="M-1950.844-4104.585v-18.43a7.288,7.288,0,0,0-6.386-7.3l-9.051-1.125-.2.459a14.685,14.685,0,0,1-13.511,8.909h-.016a14.68,14.68,0,0,1-13.51-8.911l-.226-.526-9.006,1.12a7.283,7.283,0,0,0-6.385,7.285v18.515h-2.916v-18.5a10.14,10.14,0,0,1,.629-3.6,8.785,8.785,0,0,1-2.506-2.86,8.677,8.677,0,0,1-.717-6.65,8.672,8.672,0,0,1,2.742-4.218,8.74,8.74,0,0,1-1.528-4.2,8.759,8.759,0,0,1,6.015-9.1,7.258,7.258,0,0,1-.265-1.83,7.311,7.311,0,0,1,4.4-6.71,5.846,5.846,0,0,1-.03-.6,5.8,5.8,0,0,1,1.457-3.851v-3.434A21.878,21.878,0,0,1-1980-4192a21.878,21.878,0,0,1,21.854,21.854v3.434a5.8,5.8,0,0,1,1.457,3.852,5.829,5.829,0,0,1-.03.595,7.3,7.3,0,0,1,4.4,6.689,7.254,7.254,0,0,1-.267,1.852,8.758,8.758,0,0,1,6.018,9.1,8.76,8.76,0,0,1-1.53,4.207,8.759,8.759,0,0,1,2.026,10.867,8.806,8.806,0,0,1-2.516,2.866,10.18,10.18,0,0,1,.655,3.679v18.419Zm-29.16-20.4h.013a11.775,11.775,0,0,0,10.695-6.83l-1.046-.131a4.372,4.372,0,0,1-3.827-4.37v-4.278a16.742,16.742,0,0,1-5.827,1.04,16.731,16.731,0,0,1-5.813-1.035v4.21a4.365,4.365,0,0,1-3.826,4.36l-1.093.136A11.773,11.773,0,0,0-1980-4124.982Zm8.749-11.32a1.461,1.461,0,0,0,1.275,1.469l13.109,1.629a10.182,10.182,0,0,1,6.856,3.941,5.867,5.867,0,0,0,1.391-1.686,5.836,5.836,0,0,0-2.321-7.909,1.457,1.457,0,0,1-.746-1.089,1.454,1.454,0,0,1,.44-1.245,5.822,5.822,0,0,0,1.784-3.694,5.835,5.835,0,0,0-5.281-6.328,1.456,1.456,0,0,1-1.172-.8,1.451,1.451,0,0,1,.06-1.415,4.3,4.3,0,0,0,.631-2.175,4.363,4.363,0,0,0-2.506-3.932,5.825,5.825,0,0,1-4.779,2.5h-.71l-.094,1.546a16.637,16.637,0,0,1-7.937,13.481Zm-33.509-19.277a4.245,4.245,0,0,0,.63,2.153,1.456,1.456,0,0,1,.06,1.415,1.455,1.455,0,0,1-1.171.8,5.835,5.835,0,0,0-5.282,6.328,5.813,5.813,0,0,0,1.785,3.694,1.458,1.458,0,0,1,.44,1.245,1.46,1.46,0,0,1-.746,1.089,5.779,5.779,0,0,0-2.8,3.474,5.793,5.793,0,0,0,.478,4.434,5.839,5.839,0,0,0,1.364,1.666,10.189,10.189,0,0,1,6.894-3.991l13.112-1.631a1.456,1.456,0,0,0,1.273-1.457V-4142a16.663,16.663,0,0,1-7.953-13.513l-.093-1.522h-.71a5.823,5.823,0,0,1-4.779-2.5A4.378,4.378,0,0,0-2004.764-4155.579Zm11-.087a13.763,13.763,0,0,0,13.771,13.2,13.757,13.757,0,0,0,13.769-13.177l.673-11L-1980-4178.462l-14.442,11.815Zm31.254-4.282a2.917,2.917,0,0,0,2.914-2.913,2.917,2.917,0,0,0-2.914-2.914h-.176l-.356,5.827Zm-34.966,0h.532l-.356-5.827h-.176a2.916,2.916,0,0,0-2.913,2.913A2.917,2.917,0,0,0-1997.48-4159.948Zm34.966-8.741a5.848,5.848,0,0,1,1.457.184v-1.641a18.966,18.966,0,0,0-17.485-18.885v7.994l15.092,12.348Zm-36.423-1.457v1.641a5.851,5.851,0,0,1,1.457-.184h.936l15.088-12.344v-8A18.964,18.964,0,0,0-1998.937-4170.146Zm17.132,20.4h-1.105v-2.914h1.112a12.4,12.4,0,0,0,5.522-1.3l1.3,2.606a15.324,15.324,0,0,1-6.828,1.612Zm-1.568-7.359a1.456,1.456,0,0,1-.92-1.843l2.914-8.741,2.764.922-2.454,7.358,2.989,1-.921,2.765Zm9.2-7.21a2.915,2.915,0,0,1,2.914-2.915,2.915,2.915,0,0,1,2.914,2.915,2.915,2.915,0,0,1-2.914,2.914A2.915,2.915,0,0,1-1974.172-4164.319Zm-17.482,0a2.914,2.914,0,0,1,2.913-2.915,2.915,2.915,0,0,1,2.914,2.915,2.915,2.915,0,0,1-2.914,2.914A2.914,2.914,0,0,1-1991.655-4164.319Z" transform="translate(2607 4627)"/>
    <g id="Group_82" data-name="Group 82">
      <g id="Ellipse_13" data-name="Ellipse 13" class="cls-2" transform="translate(608 507)">
        <circle class="cls-4" cx="20.5" cy="20.5" r="20.5"/>
        <circle class="cls-5" cx="20.5" cy="20.5" r="19.25"/>
      </g>
      <path id="Path_116" data-name="Path 116" class="cls-3" d="M8.359-4.443V-.8H5.938V-4.443H2.324V-6.855H5.938v-3.623H8.359v3.623H12v2.412Z" transform="translate(621 533)"/>
    </g>
  </g>
</svg>
